<svg width="523" height="84" viewBox="0 0 523 84" fill="none" xmlns="http://www.w3.org/2000/svg">
<path d="M24.8439 29.888C29.0039 29.888 32.7159 30.624 35.9799 32.096C39.2439 33.504 41.7719 35.456 43.5639 37.952C45.4199 40.448 46.3479 43.232 46.3479 46.304V78.848C46.3479 79.168 46.2199 79.456 45.9639 79.712C45.7719 79.904 45.5159 80 45.1959 80H33.9639C33.6439 80 33.3559 79.904 33.0999 79.712C32.9079 79.456 32.8119 79.168 32.8119 78.848V75.68C32.8119 75.488 32.7479 75.36 32.6199 75.296C32.4919 75.232 32.3639 75.296 32.2359 75.488C29.5479 79.008 25.2279 80.768 19.2759 80.768C14.2839 80.768 10.2519 79.552 7.17988 77.12C4.10788 74.688 2.57188 71.104 2.57188 66.368C2.57188 61.44 4.29988 57.632 7.75588 54.944C11.2119 52.192 16.1399 50.816 22.5399 50.816H32.3319C32.6519 50.816 32.8119 50.656 32.8119 50.336V48.224C32.8119 46.112 32.1719 44.48 30.8919 43.328C29.6119 42.112 27.6919 41.504 25.1319 41.504C23.1479 41.504 21.4839 41.856 20.1399 42.56C18.8599 43.264 18.0279 44.256 17.6439 45.536C17.4519 46.24 17.0359 46.56 16.3959 46.496L4.77988 44.96C4.01188 44.832 3.65988 44.544 3.72388 44.096C3.97988 41.408 5.03588 38.976 6.89188 36.8C8.81188 34.624 11.3079 32.928 14.3799 31.712C17.5159 30.496 21.0039 29.888 24.8439 29.888ZM22.9239 70.688C25.6759 70.688 28.0119 69.952 29.9319 68.48C31.8519 67.008 32.8119 65.12 32.8119 62.816V59.36C32.8119 59.04 32.6519 58.88 32.3319 58.88H25.4199C22.5399 58.88 20.2679 59.424 18.6039 60.512C17.0039 61.6 16.2039 63.136 16.2039 65.12C16.2039 66.848 16.8119 68.224 18.0279 69.248C19.2439 70.208 20.8759 70.688 22.9239 70.688ZM80.4586 29.984C82.7626 29.984 84.5866 30.432 85.9306 31.328C86.4426 31.584 86.6346 32.064 86.5066 32.768L84.4906 43.712C84.4266 44.48 83.9786 44.704 83.1466 44.384C82.1866 44.064 81.0666 43.904 79.7866 43.904C79.2746 43.904 78.5706 43.968 77.6746 44.096C75.3706 44.288 73.4186 45.152 71.8186 46.688C70.2186 48.16 69.4186 50.144 69.4186 52.64V78.848C69.4186 79.168 69.2906 79.456 69.0346 79.712C68.8426 79.904 68.5866 80 68.2666 80H57.0346C56.7146 80 56.4266 79.904 56.1706 79.712C55.9786 79.456 55.8826 79.168 55.8826 78.848V31.808C55.8826 31.488 55.9786 31.232 56.1706 31.04C56.4266 30.784 56.7146 30.656 57.0346 30.656H68.2666C68.5866 30.656 68.8426 30.784 69.0346 31.04C69.2906 31.232 69.4186 31.488 69.4186 31.808V35.456C69.4186 35.648 69.4826 35.776 69.6106 35.84C69.7386 35.904 69.8346 35.872 69.8986 35.744C72.5226 31.904 76.0426 29.984 80.4586 29.984ZM111.75 29.888C115.91 29.888 119.622 30.624 122.886 32.096C126.15 33.504 128.678 35.456 130.47 37.952C132.326 40.448 133.254 43.232 133.254 46.304V78.848C133.254 79.168 133.126 79.456 132.87 79.712C132.678 79.904 132.422 80 132.102 80H120.87C120.55 80 120.262 79.904 120.006 79.712C119.814 79.456 119.718 79.168 119.718 78.848V75.68C119.718 75.488 119.654 75.36 119.526 75.296C119.398 75.232 119.27 75.296 119.142 75.488C116.454 79.008 112.134 80.768 106.182 80.768C101.19 80.768 97.1581 79.552 94.0861 77.12C91.0141 74.688 89.4781 71.104 89.4781 66.368C89.4781 61.44 91.2061 57.632 94.6621 54.944C98.1181 52.192 103.046 50.816 109.446 50.816H119.238C119.558 50.816 119.718 50.656 119.718 50.336V48.224C119.718 46.112 119.078 44.48 117.798 43.328C116.518 42.112 114.598 41.504 112.038 41.504C110.054 41.504 108.39 41.856 107.046 42.56C105.766 43.264 104.934 44.256 104.55 45.536C104.358 46.24 103.942 46.56 103.302 46.496L91.6861 44.96C90.9181 44.832 90.5661 44.544 90.6301 44.096C90.8861 41.408 91.9421 38.976 93.7981 36.8C95.7181 34.624 98.2141 32.928 101.286 31.712C104.422 30.496 107.91 29.888 111.75 29.888ZM109.83 70.688C112.582 70.688 114.918 69.952 116.838 68.48C118.758 67.008 119.718 65.12 119.718 62.816V59.36C119.718 59.04 119.558 58.88 119.238 58.88H112.326C109.446 58.88 107.174 59.424 105.51 60.512C103.91 61.6 103.11 63.136 103.11 65.12C103.11 66.848 103.718 68.224 104.934 69.248C106.15 70.208 107.782 70.688 109.83 70.688ZM167.365 29.984C169.669 29.984 171.493 30.432 172.837 31.328C173.349 31.584 173.541 32.064 173.413 32.768L171.397 43.712C171.333 44.48 170.885 44.704 170.053 44.384C169.093 44.064 167.973 43.904 166.693 43.904C166.181 43.904 165.477 43.968 164.581 44.096C162.277 44.288 160.325 45.152 158.725 46.688C157.125 48.16 156.325 50.144 156.325 52.64V78.848C156.325 79.168 156.197 79.456 155.941 79.712C155.749 79.904 155.493 80 155.173 80H143.941C143.621 80 143.333 79.904 143.077 79.712C142.885 79.456 142.789 79.168 142.789 78.848V31.808C142.789 31.488 142.885 31.232 143.077 31.04C143.333 30.784 143.621 30.656 143.941 30.656H155.173C155.493 30.656 155.749 30.784 155.941 31.04C156.197 31.232 156.325 31.488 156.325 31.808V35.456C156.325 35.648 156.389 35.776 156.517 35.84C156.645 35.904 156.741 35.872 156.805 35.744C159.429 31.904 162.949 29.984 167.365 29.984ZM198.656 29.888C202.816 29.888 206.528 30.624 209.792 32.096C213.056 33.504 215.584 35.456 217.376 37.952C219.232 40.448 220.16 43.232 220.16 46.304V78.848C220.16 79.168 220.032 79.456 219.776 79.712C219.584 79.904 219.328 80 219.008 80H207.776C207.456 80 207.168 79.904 206.912 79.712C206.72 79.456 206.624 79.168 206.624 78.848V75.68C206.624 75.488 206.56 75.36 206.432 75.296C206.304 75.232 206.176 75.296 206.048 75.488C203.36 79.008 199.04 80.768 193.088 80.768C188.096 80.768 184.064 79.552 180.992 77.12C177.92 74.688 176.384 71.104 176.384 66.368C176.384 61.44 178.112 57.632 181.568 54.944C185.024 52.192 189.952 50.816 196.352 50.816H206.144C206.464 50.816 206.624 50.656 206.624 50.336V48.224C206.624 46.112 205.984 44.48 204.704 43.328C203.424 42.112 201.504 41.504 198.944 41.504C196.96 41.504 195.296 41.856 193.952 42.56C192.672 43.264 191.84 44.256 191.456 45.536C191.264 46.24 190.848 46.56 190.208 46.496L178.592 44.96C177.824 44.832 177.472 44.544 177.536 44.096C177.792 41.408 178.848 38.976 180.704 36.8C182.624 34.624 185.12 32.928 188.192 31.712C191.328 30.496 194.816 29.888 198.656 29.888ZM196.736 70.688C199.488 70.688 201.824 69.952 203.744 68.48C205.664 67.008 206.624 65.12 206.624 62.816V59.36C206.624 59.04 206.464 58.88 206.144 58.88H199.232C196.352 58.88 194.08 59.424 192.416 60.512C190.816 61.6 190.016 63.136 190.016 65.12C190.016 66.848 190.624 68.224 191.84 69.248C193.056 70.208 194.688 70.688 196.736 70.688ZM238.047 79.616C236.639 79.616 235.487 79.168 234.591 78.272C233.695 77.376 233.247 76.224 233.247 74.816C233.247 73.408 233.695 72.256 234.591 71.36C235.487 70.464 236.639 70.016 238.047 70.016C239.455 70.016 240.607 70.464 241.503 71.36C242.399 72.256 242.847 73.408 242.847 74.816C242.847 76.224 242.399 77.376 241.503 78.272C240.607 79.168 239.455 79.616 238.047 79.616ZM275.033 80.48C271.577 80.48 268.505 79.936 265.817 78.848C263.193 77.696 261.145 76.16 259.673 74.24C258.201 72.32 257.465 70.208 257.465 67.904V66.656C257.465 66.016 257.785 65.696 258.425 65.696H261.401C262.041 65.696 262.361 66.016 262.361 66.656V67.712C262.361 70.08 263.545 72.128 265.913 73.856C268.281 75.52 271.289 76.352 274.937 76.352C278.521 76.352 281.433 75.488 283.673 73.76C285.913 72.032 287.033 69.888 287.033 67.328C287.033 65.536 286.457 64.064 285.305 62.912C284.153 61.76 282.777 60.896 281.177 60.32C279.641 59.68 277.305 58.88 274.169 57.92C270.585 56.832 267.705 55.808 265.529 54.848C263.353 53.888 261.497 52.544 259.961 50.816C258.489 49.024 257.753 46.784 257.753 44.096C257.753 40.192 259.289 37.088 262.361 34.784C265.497 32.416 269.593 31.232 274.649 31.232C278.041 31.232 281.017 31.808 283.577 32.96C286.201 34.048 288.217 35.552 289.625 37.472C291.097 39.392 291.833 41.568 291.833 44V44.288C291.833 44.928 291.513 45.248 290.873 45.248H287.897C287.257 45.248 286.937 44.928 286.937 44.288V44C286.937 41.568 285.785 39.552 283.481 37.952C281.241 36.288 278.265 35.456 274.553 35.456C270.969 35.456 268.089 36.224 265.913 37.76C263.737 39.232 262.649 41.248 262.649 43.808C262.649 46.24 263.641 48.064 265.625 49.28C267.673 50.496 270.841 51.744 275.129 53.024C278.841 54.112 281.785 55.136 283.961 56.096C286.201 57.056 288.121 58.432 289.721 60.224C291.321 61.952 292.121 64.224 292.121 67.04C292.121 71.072 290.553 74.336 287.417 76.832C284.345 79.264 280.217 80.48 275.033 80.48ZM323.279 80.768C318.735 80.768 314.863 79.584 311.663 77.216C308.527 74.848 306.415 71.68 305.327 67.712C304.495 64.64 304.079 60.64 304.079 55.712C304.079 50.976 304.495 47.008 305.327 43.808C306.351 39.904 308.463 36.768 311.663 34.4C314.863 32.032 318.735 30.848 323.279 30.848C327.823 30.848 331.727 32 334.991 34.304C338.319 36.608 340.431 39.488 341.327 42.944C341.583 43.84 341.775 44.736 341.903 45.632V45.824C341.903 46.272 341.615 46.56 341.039 46.688L337.967 47.072H337.775C337.327 47.072 337.039 46.784 336.911 46.208L336.623 44.864C336.047 42.176 334.543 39.936 332.111 38.144C329.679 36.288 326.735 35.36 323.279 35.36C319.759 35.36 316.815 36.288 314.447 38.144C312.143 40 310.671 42.464 310.031 45.536C309.455 47.968 309.167 51.392 309.167 55.808C309.167 60.288 309.455 63.68 310.031 65.984C310.671 69.12 312.143 71.616 314.447 73.472C316.815 75.328 319.759 76.256 323.279 76.256C326.735 76.256 329.679 75.36 332.111 73.568C334.607 71.712 336.111 69.408 336.623 66.656L336.719 66.176C336.847 65.472 337.231 65.184 337.871 65.312L340.847 65.792C341.487 65.92 341.775 66.272 341.711 66.848L341.327 68.576C340.431 72.16 338.319 75.104 334.991 77.408C331.727 79.648 327.823 80.768 323.279 80.768ZM374.219 30.944C379.147 30.944 383.115 32.448 386.123 35.456C389.195 38.464 390.731 42.432 390.731 47.36V79.04C390.731 79.68 390.411 80 389.771 80H386.603C385.963 80 385.643 79.68 385.643 79.04V48.32C385.643 44.544 384.491 41.472 382.187 39.104C379.883 36.672 376.875 35.456 373.163 35.456C369.323 35.456 366.219 36.64 363.851 39.008C361.483 41.312 360.299 44.352 360.299 48.128V79.04C360.299 79.68 359.979 80 359.339 80H356.171C355.531 80 355.211 79.68 355.211 79.04V13.76C355.211 13.12 355.531 12.8 356.171 12.8H359.339C359.979 12.8 360.299 13.12 360.299 13.76V37.28C360.299 37.472 360.331 37.6 360.395 37.664C360.523 37.664 360.619 37.6 360.683 37.472C362.091 35.36 363.947 33.76 366.251 32.672C368.555 31.52 371.211 30.944 374.219 30.944ZM423.496 80.768C419.016 80.768 415.176 79.584 411.976 77.216C408.776 74.848 406.6 71.68 405.448 67.712C404.744 65.152 404.392 61.152 404.392 55.712C404.392 50.272 404.744 46.304 405.448 43.808C406.6 39.84 408.744 36.704 411.88 34.4C415.08 32.032 418.984 30.848 423.592 30.848C428.072 30.848 431.912 32.032 435.112 34.4C438.376 36.768 440.552 39.904 441.64 43.808C442.024 45.28 442.28 46.944 442.408 48.8C442.536 50.592 442.6 52.896 442.6 55.712C442.6 58.656 442.536 61.024 442.408 62.816C442.28 64.608 442.024 66.24 441.64 67.712C440.552 71.68 438.376 74.848 435.112 77.216C431.912 79.584 428.04 80.768 423.496 80.768ZM423.496 76.256C426.888 76.256 429.768 75.328 432.136 73.472C434.568 71.552 436.136 69.056 436.84 65.984C437.288 64.256 437.512 60.864 437.512 55.808C437.512 50.688 437.32 47.296 436.936 45.632C436.232 42.496 434.664 40 432.232 38.144C429.864 36.288 426.952 35.36 423.496 35.36C420.04 35.36 417.128 36.288 414.76 38.144C412.392 40 410.856 42.496 410.152 45.632C409.704 47.616 409.48 51.008 409.48 55.808C409.48 60.608 409.704 64 410.152 65.984C410.856 69.12 412.392 71.616 414.76 73.472C417.128 75.328 420.04 76.256 423.496 76.256ZM475.246 80.768C470.766 80.768 466.926 79.584 463.726 77.216C460.526 74.848 458.35 71.68 457.198 67.712C456.494 65.152 456.142 61.152 456.142 55.712C456.142 50.272 456.494 46.304 457.198 43.808C458.35 39.84 460.494 36.704 463.63 34.4C466.83 32.032 470.734 30.848 475.342 30.848C479.822 30.848 483.662 32.032 486.862 34.4C490.126 36.768 492.302 39.904 493.39 43.808C493.774 45.28 494.03 46.944 494.158 48.8C494.286 50.592 494.35 52.896 494.35 55.712C494.35 58.656 494.286 61.024 494.158 62.816C494.03 64.608 493.774 66.24 493.39 67.712C492.302 71.68 490.126 74.848 486.862 77.216C483.662 79.584 479.79 80.768 475.246 80.768ZM475.246 76.256C478.638 76.256 481.518 75.328 483.886 73.472C486.318 71.552 487.886 69.056 488.59 65.984C489.038 64.256 489.262 60.864 489.262 55.808C489.262 50.688 489.07 47.296 488.686 45.632C487.982 42.496 486.414 40 483.982 38.144C481.614 36.288 478.702 35.36 475.246 35.36C471.79 35.36 468.878 36.288 466.51 38.144C464.142 40 462.606 42.496 461.902 45.632C461.454 47.616 461.23 51.008 461.23 55.808C461.23 60.608 461.454 64 461.902 65.984C462.606 69.12 464.142 71.616 466.51 73.472C468.878 75.328 471.79 76.256 475.246 76.256ZM510.484 80C509.844 80 509.524 79.68 509.524 79.04V13.76C509.524 13.12 509.844 12.8 510.484 12.8H513.652C514.292 12.8 514.612 13.12 514.612 13.76V79.04C514.612 79.68 514.292 80 513.652 80H510.484Z" fill="#F9F9F9"/>
</svg>
